<mxfile host="Electron" modified="2025-09-03T21:44:51.429Z" agent="Mozilla/5.0 (Windows NT 10.0; Win64; x64) AppleWebKit/537.36 (KHTML, like Gecko) draw.io/21.2.1 Chrome/112.0.5615.87 Electron/24.1.2 Safari/537.36" etag="7nq_0NCIVkmegkSGWKnq" version="21.2.1" type="device">
  <diagram name="PÃ¡gina-1" id="dWDGOyahTfHYNRJ2HB85">
    <mxGraphModel dx="2061" dy="1906" grid="1" gridSize="10" guides="1" tooltips="1" connect="1" arrows="1" fold="1" page="1" pageScale="1" pageWidth="827" pageHeight="1169" math="0" shadow="0">
      <root>
        <mxCell id="0" />
        <mxCell id="1" parent="0" />
        <mxCell id="wtRW66X6fy5YM0caPJme-1" value="Cliente" style="shape=umlActor;verticalLabelPosition=bottom;verticalAlign=top;html=1;labelBackgroundColor=none;rounded=1;" parent="1" vertex="1">
          <mxGeometry x="-150" y="390" width="30" height="60" as="geometry" />
        </mxCell>
        <mxCell id="wtRW66X6fy5YM0caPJme-2" value="registrarse" style="ellipse;whiteSpace=wrap;html=1;" parent="1" vertex="1">
          <mxGeometry x="40" y="230" width="120" height="80" as="geometry" />
        </mxCell>
        <mxCell id="wtRW66X6fy5YM0caPJme-3" value="Admin" style="shape=umlActor;verticalLabelPosition=bottom;verticalAlign=top;html=1;labelBackgroundColor=none;rounded=1;" parent="1" vertex="1">
          <mxGeometry x="635" y="380" width="30" height="60" as="geometry" />
        </mxCell>
        <mxCell id="wtRW66X6fy5YM0caPJme-7" value="" style="endArrow=none;html=1;rounded=0;endFill=0;" parent="1" target="wtRW66X6fy5YM0caPJme-2" edge="1" source="wtRW66X6fy5YM0caPJme-1">
          <mxGeometry width="50" height="50" relative="1" as="geometry">
            <mxPoint x="80" y="480" as="sourcePoint" />
            <mxPoint x="130" y="430" as="targetPoint" />
          </mxGeometry>
        </mxCell>
        <mxCell id="wtRW66X6fy5YM0caPJme-13" value="" style="edgeStyle=orthogonalEdgeStyle;rounded=0;orthogonalLoop=1;jettySize=auto;html=1;endArrow=none;endFill=0;dashed=1;dashPattern=8 8;" parent="1" source="wtRW66X6fy5YM0caPJme-10" target="wtRW66X6fy5YM0caPJme-12" edge="1">
          <mxGeometry relative="1" as="geometry" />
        </mxCell>
        <mxCell id="wtRW66X6fy5YM0caPJme-10" value="iniciar sesion" style="ellipse;whiteSpace=wrap;html=1;" parent="1" vertex="1">
          <mxGeometry x="250" y="230" width="120" height="80" as="geometry" />
        </mxCell>
        <mxCell id="wtRW66X6fy5YM0caPJme-12" value="crear publicacion" style="ellipse;whiteSpace=wrap;html=1;" parent="1" vertex="1">
          <mxGeometry x="420" y="230" width="120" height="80" as="geometry" />
        </mxCell>
        <mxCell id="fa8fzudUMNSHpjl4JC91-7" value="" style="edgeStyle=orthogonalEdgeStyle;rounded=0;orthogonalLoop=1;jettySize=auto;html=1;endArrow=none;endFill=0;dashed=1;dashPattern=8 8;" edge="1" parent="1" source="wtRW66X6fy5YM0caPJme-27" target="fa8fzudUMNSHpjl4JC91-3">
          <mxGeometry relative="1" as="geometry" />
        </mxCell>
        <mxCell id="wtRW66X6fy5YM0caPJme-27" value="publicacion" style="ellipse;whiteSpace=wrap;html=1;" parent="1" vertex="1">
          <mxGeometry x="420" y="80" width="120" height="80" as="geometry" />
        </mxCell>
        <mxCell id="wtRW66X6fy5YM0caPJme-29" value="" style="endArrow=none;html=1;rounded=0;entryX=0.5;entryY=1;entryDx=0;entryDy=0;exitX=0.5;exitY=0;exitDx=0;exitDy=0;endFill=0;dashed=1;dashPattern=12 12;" parent="1" source="wtRW66X6fy5YM0caPJme-12" target="wtRW66X6fy5YM0caPJme-27" edge="1">
          <mxGeometry width="50" height="50" relative="1" as="geometry">
            <mxPoint x="460" y="230" as="sourcePoint" />
            <mxPoint x="510" y="180" as="targetPoint" />
          </mxGeometry>
        </mxCell>
        <mxCell id="wtRW66X6fy5YM0caPJme-30" value="include" style="text;html=1;strokeColor=none;fillColor=none;align=center;verticalAlign=middle;whiteSpace=wrap;rounded=0;" parent="1" vertex="1">
          <mxGeometry x="490" y="180" width="60" height="30" as="geometry" />
        </mxCell>
        <mxCell id="wtRW66X6fy5YM0caPJme-31" value="ver publicacion" style="ellipse;whiteSpace=wrap;html=1;" parent="1" vertex="1">
          <mxGeometry x="250" y="80" width="120" height="80" as="geometry" />
        </mxCell>
        <mxCell id="wtRW66X6fy5YM0caPJme-32" value="" style="endArrow=none;html=1;rounded=0;entryX=0.5;entryY=1;entryDx=0;entryDy=0;exitX=0.5;exitY=0;exitDx=0;exitDy=0;dashed=1;dashPattern=8 8;endFill=0;" parent="1" source="wtRW66X6fy5YM0caPJme-10" target="wtRW66X6fy5YM0caPJme-31" edge="1">
          <mxGeometry width="50" height="50" relative="1" as="geometry">
            <mxPoint x="300" y="260" as="sourcePoint" />
            <mxPoint x="350" y="210" as="targetPoint" />
          </mxGeometry>
        </mxCell>
        <mxCell id="wtRW66X6fy5YM0caPJme-33" value="&lt;span style=&quot;color: rgb(0, 0, 0); font-family: Helvetica; font-size: 12px; font-style: normal; font-variant-ligatures: normal; font-variant-caps: normal; font-weight: 400; letter-spacing: normal; orphans: 2; text-align: center; text-indent: 0px; text-transform: none; widows: 2; word-spacing: 0px; -webkit-text-stroke-width: 0px; background-color: rgb(251, 251, 251); text-decoration-thickness: initial; text-decoration-style: initial; text-decoration-color: initial; float: none; display: inline !important;&quot;&gt;extends&lt;/span&gt;" style="text;whiteSpace=wrap;html=1;" parent="1" vertex="1">
          <mxGeometry x="320" y="175" width="80" height="40" as="geometry" />
        </mxCell>
        <mxCell id="wtRW66X6fy5YM0caPJme-36" value="" style="endArrow=none;html=1;rounded=0;exitX=1;exitY=0.5;exitDx=0;exitDy=0;entryX=0;entryY=0.5;entryDx=0;entryDy=0;startArrow=none;startFill=0;dashed=1;dashPattern=8 8;endFill=0;" parent="1" source="wtRW66X6fy5YM0caPJme-31" target="wtRW66X6fy5YM0caPJme-27" edge="1">
          <mxGeometry width="50" height="50" relative="1" as="geometry">
            <mxPoint x="360" y="150" as="sourcePoint" />
            <mxPoint x="410" y="100" as="targetPoint" />
          </mxGeometry>
        </mxCell>
        <mxCell id="wtRW66X6fy5YM0caPJme-37" value="&lt;span style=&quot;color: rgb(0, 0, 0); font-family: Helvetica; font-size: 12px; font-style: normal; font-variant-ligatures: normal; font-variant-caps: normal; font-weight: 400; letter-spacing: normal; orphans: 2; text-align: center; text-indent: 0px; text-transform: none; widows: 2; word-spacing: 0px; -webkit-text-stroke-width: 0px; background-color: rgb(251, 251, 251); text-decoration-thickness: initial; text-decoration-style: initial; text-decoration-color: initial; float: none; display: inline !important;&quot;&gt;extends&lt;/span&gt;" style="text;whiteSpace=wrap;html=1;" parent="1" vertex="1">
          <mxGeometry x="370" y="90" width="80" height="40" as="geometry" />
        </mxCell>
        <mxCell id="fa8fzudUMNSHpjl4JC91-2" value="comentarios" style="ellipse;whiteSpace=wrap;html=1;" vertex="1" parent="1">
          <mxGeometry x="420" y="-50" width="120" height="80" as="geometry" />
        </mxCell>
        <mxCell id="fa8fzudUMNSHpjl4JC91-11" value="" style="edgeStyle=orthogonalEdgeStyle;rounded=0;orthogonalLoop=1;jettySize=auto;html=1;endArrow=none;endFill=0;dashed=1;dashPattern=8 8;" edge="1" parent="1" source="fa8fzudUMNSHpjl4JC91-3" target="fa8fzudUMNSHpjl4JC91-10">
          <mxGeometry relative="1" as="geometry" />
        </mxCell>
        <mxCell id="fa8fzudUMNSHpjl4JC91-3" value="valoracion" style="ellipse;whiteSpace=wrap;html=1;" vertex="1" parent="1">
          <mxGeometry x="600" y="80" width="120" height="80" as="geometry" />
        </mxCell>
        <mxCell id="fa8fzudUMNSHpjl4JC91-4" value="" style="endArrow=none;html=1;rounded=0;entryX=0.5;entryY=1;entryDx=0;entryDy=0;endFill=0;dashed=1;dashPattern=8 8;" edge="1" parent="1" target="fa8fzudUMNSHpjl4JC91-2">
          <mxGeometry width="50" height="50" relative="1" as="geometry">
            <mxPoint x="480" y="80" as="sourcePoint" />
            <mxPoint x="530" y="30" as="targetPoint" />
          </mxGeometry>
        </mxCell>
        <mxCell id="fa8fzudUMNSHpjl4JC91-6" value="&lt;span style=&quot;color: rgb(0, 0, 0); font-family: Helvetica; font-size: 12px; font-style: normal; font-variant-ligatures: normal; font-variant-caps: normal; font-weight: 400; letter-spacing: normal; orphans: 2; text-align: center; text-indent: 0px; text-transform: none; widows: 2; word-spacing: 0px; -webkit-text-stroke-width: 0px; background-color: rgb(251, 251, 251); text-decoration-thickness: initial; text-decoration-style: initial; text-decoration-color: initial; float: none; display: inline !important;&quot;&gt;include&lt;/span&gt;" style="text;whiteSpace=wrap;html=1;" vertex="1" parent="1">
          <mxGeometry x="485" y="40" width="70" height="40" as="geometry" />
        </mxCell>
        <mxCell id="fa8fzudUMNSHpjl4JC91-8" value="&lt;span style=&quot;color: rgb(0, 0, 0); font-family: Helvetica; font-size: 12px; font-style: normal; font-variant-ligatures: normal; font-variant-caps: normal; font-weight: 400; letter-spacing: normal; orphans: 2; text-align: center; text-indent: 0px; text-transform: none; widows: 2; word-spacing: 0px; -webkit-text-stroke-width: 0px; background-color: rgb(251, 251, 251); text-decoration-thickness: initial; text-decoration-style: initial; text-decoration-color: initial; float: none; display: inline !important;&quot;&gt;include&lt;/span&gt;" style="text;whiteSpace=wrap;html=1;" vertex="1" parent="1">
          <mxGeometry x="550" y="80" width="70" height="40" as="geometry" />
        </mxCell>
        <mxCell id="fa8fzudUMNSHpjl4JC91-10" value="retirar valoracion" style="ellipse;whiteSpace=wrap;html=1;" vertex="1" parent="1">
          <mxGeometry x="600" y="-50" width="120" height="80" as="geometry" />
        </mxCell>
        <mxCell id="fa8fzudUMNSHpjl4JC91-12" value="&lt;span style=&quot;color: rgb(0, 0, 0); font-family: Helvetica; font-size: 12px; font-style: normal; font-variant-ligatures: normal; font-variant-caps: normal; font-weight: 400; letter-spacing: normal; orphans: 2; text-align: center; text-indent: 0px; text-transform: none; widows: 2; word-spacing: 0px; -webkit-text-stroke-width: 0px; background-color: rgb(251, 251, 251); text-decoration-thickness: initial; text-decoration-style: initial; text-decoration-color: initial; float: none; display: inline !important;&quot;&gt;include&lt;/span&gt;" style="text;whiteSpace=wrap;html=1;" vertex="1" parent="1">
          <mxGeometry x="675" y="40" width="70" height="40" as="geometry" />
        </mxCell>
        <mxCell id="fa8fzudUMNSHpjl4JC91-15" value="comentar publicacion" style="ellipse;whiteSpace=wrap;html=1;" vertex="1" parent="1">
          <mxGeometry x="420" y="-180" width="120" height="80" as="geometry" />
        </mxCell>
        <mxCell id="fa8fzudUMNSHpjl4JC91-16" value="" style="endArrow=none;html=1;rounded=0;exitX=0.5;exitY=0;exitDx=0;exitDy=0;entryX=0.5;entryY=1;entryDx=0;entryDy=0;endFill=0;dashed=1;dashPattern=8 8;" edge="1" parent="1" source="fa8fzudUMNSHpjl4JC91-2" target="fa8fzudUMNSHpjl4JC91-15">
          <mxGeometry width="50" height="50" relative="1" as="geometry">
            <mxPoint x="450" y="-40" as="sourcePoint" />
            <mxPoint x="500" y="-90" as="targetPoint" />
          </mxGeometry>
        </mxCell>
        <mxCell id="fa8fzudUMNSHpjl4JC91-17" value="&lt;span style=&quot;color: rgb(0, 0, 0); font-family: Helvetica; font-size: 12px; font-style: normal; font-variant-ligatures: normal; font-variant-caps: normal; font-weight: 400; letter-spacing: normal; orphans: 2; text-align: center; text-indent: 0px; text-transform: none; widows: 2; word-spacing: 0px; -webkit-text-stroke-width: 0px; background-color: rgb(251, 251, 251); text-decoration-thickness: initial; text-decoration-style: initial; text-decoration-color: initial; float: none; display: inline !important;&quot;&gt;extends&lt;/span&gt;" style="text;whiteSpace=wrap;html=1;" vertex="1" parent="1">
          <mxGeometry x="490" y="-90" width="80" height="40" as="geometry" />
        </mxCell>
        <mxCell id="fa8fzudUMNSHpjl4JC91-18" value="ver publicacion" style="ellipse;whiteSpace=wrap;html=1;" vertex="1" parent="1">
          <mxGeometry x="590" y="215" width="120" height="80" as="geometry" />
        </mxCell>
        <mxCell id="fa8fzudUMNSHpjl4JC91-19" value="Eliminar comentarios" style="ellipse;whiteSpace=wrap;html=1;" vertex="1" parent="1">
          <mxGeometry x="790" y="80" width="120" height="80" as="geometry" />
        </mxCell>
        <mxCell id="fa8fzudUMNSHpjl4JC91-20" value="Eliminar publicacion" style="ellipse;whiteSpace=wrap;html=1;" vertex="1" parent="1">
          <mxGeometry x="800" y="215" width="120" height="80" as="geometry" />
        </mxCell>
        <mxCell id="fa8fzudUMNSHpjl4JC91-22" value="" style="endArrow=none;html=1;rounded=0;exitX=1;exitY=0.5;exitDx=0;exitDy=0;entryX=0;entryY=0.5;entryDx=0;entryDy=0;startArrow=none;startFill=0;endFill=0;dashed=1;dashPattern=8 8;" edge="1" parent="1" source="fa8fzudUMNSHpjl4JC91-18" target="fa8fzudUMNSHpjl4JC91-20">
          <mxGeometry width="50" height="50" relative="1" as="geometry">
            <mxPoint x="880" y="150" as="sourcePoint" />
            <mxPoint x="930" y="100" as="targetPoint" />
          </mxGeometry>
        </mxCell>
        <mxCell id="fa8fzudUMNSHpjl4JC91-26" value="" style="endArrow=none;html=1;rounded=0;entryX=0.5;entryY=1;entryDx=0;entryDy=0;exitX=0.5;exitY=0;exitDx=0;exitDy=0;exitPerimeter=0;endFill=0;dashed=1;dashPattern=8 8;" edge="1" parent="1" source="wtRW66X6fy5YM0caPJme-3" target="fa8fzudUMNSHpjl4JC91-18">
          <mxGeometry width="50" height="50" relative="1" as="geometry">
            <mxPoint x="640" y="320" as="sourcePoint" />
            <mxPoint x="690" y="270" as="targetPoint" />
          </mxGeometry>
        </mxCell>
        <mxCell id="fa8fzudUMNSHpjl4JC91-27" value="" style="endArrow=none;html=1;rounded=0;exitX=0.234;exitY=0.006;exitDx=0;exitDy=0;exitPerimeter=0;endFill=0;dashed=1;dashPattern=8 8;" edge="1" parent="1" source="fa8fzudUMNSHpjl4JC91-18">
          <mxGeometry width="50" height="50" relative="1" as="geometry">
            <mxPoint x="620" y="210" as="sourcePoint" />
            <mxPoint x="530" y="140" as="targetPoint" />
          </mxGeometry>
        </mxCell>
        <mxCell id="fa8fzudUMNSHpjl4JC91-28" value="extends" style="text;whiteSpace=wrap;html=1;" vertex="1" parent="1">
          <mxGeometry x="730" y="270" width="80" height="40" as="geometry" />
        </mxCell>
        <mxCell id="fa8fzudUMNSHpjl4JC91-32" value="&lt;span style=&quot;color: rgb(0, 0, 0); font-family: Helvetica; font-size: 12px; font-style: normal; font-variant-ligatures: normal; font-variant-caps: normal; font-weight: 400; letter-spacing: normal; orphans: 2; text-align: center; text-indent: 0px; text-transform: none; widows: 2; word-spacing: 0px; -webkit-text-stroke-width: 0px; background-color: rgb(251, 251, 251); text-decoration-thickness: initial; text-decoration-style: initial; text-decoration-color: initial; float: none; display: inline !important;&quot;&gt;include&lt;/span&gt;" style="text;whiteSpace=wrap;html=1;" vertex="1" parent="1">
          <mxGeometry x="565" y="140" width="70" height="40" as="geometry" />
        </mxCell>
        <mxCell id="fa8fzudUMNSHpjl4JC91-37" value="&lt;span style=&quot;color: rgb(0, 0, 0); font-family: Helvetica; font-size: 12px; font-style: normal; font-variant-ligatures: normal; font-variant-caps: normal; font-weight: 400; letter-spacing: normal; orphans: 2; text-align: center; text-indent: 0px; text-transform: none; widows: 2; word-spacing: 0px; -webkit-text-stroke-width: 0px; background-color: rgb(251, 251, 251); text-decoration-thickness: initial; text-decoration-style: initial; text-decoration-color: initial; float: none; display: inline !important;&quot;&gt;extends&lt;/span&gt;" style="text;whiteSpace=wrap;html=1;" vertex="1" parent="1">
          <mxGeometry x="710" y="150" width="80" height="40" as="geometry" />
        </mxCell>
        <mxCell id="fa8fzudUMNSHpjl4JC91-38" value="" style="endArrow=none;html=1;rounded=0;endFill=0;dashed=1;dashPattern=8 8;" edge="1" parent="1" target="fa8fzudUMNSHpjl4JC91-19">
          <mxGeometry width="50" height="50" relative="1" as="geometry">
            <mxPoint x="700" y="220" as="sourcePoint" />
            <mxPoint x="750" y="170" as="targetPoint" />
          </mxGeometry>
        </mxCell>
        <mxCell id="fa8fzudUMNSHpjl4JC91-42" value="" style="endArrow=none;html=1;rounded=0;exitX=1;exitY=0.5;exitDx=0;exitDy=0;entryX=0;entryY=0.5;entryDx=0;entryDy=0;dashed=1;dashPattern=8 8;endFill=0;" edge="1" parent="1" source="wtRW66X6fy5YM0caPJme-2" target="wtRW66X6fy5YM0caPJme-10">
          <mxGeometry width="50" height="50" relative="1" as="geometry">
            <mxPoint x="190" y="290" as="sourcePoint" />
            <mxPoint x="240" y="240" as="targetPoint" />
          </mxGeometry>
        </mxCell>
      </root>
    </mxGraphModel>
  </diagram>
</mxfile>
